<svg width="558" height="558" viewBox="0 0 558 558" fill="none" xmlns="http://www.w3.org/2000/svg">
<rect x="12" y="12" width="533" height="533" rx="73" fill="url(#paint0_linear_985_47)"/>
<path d="M371.442 119.618L295.091 142.466L218.74 119.618M295.091 141.872V254.267M454.294 287.616L391.636 311.058L328.994 287.616M391.636 310.464V390.746M291.326 304.283L198.545 335.143L105.765 304.283M198.545 334.549V463M375.545 130.328C375.546 126.873 374.43 123.511 372.363 120.74C370.296 117.969 367.389 115.937 364.073 114.946L299.709 95.6779C296.691 94.774 293.474 94.774 290.457 95.6779L226.093 114.946C222.78 115.94 219.876 117.973 217.813 120.744C215.749 123.515 214.635 126.875 214.636 130.328V211.878C214.638 215.086 215.604 218.221 217.408 220.877C219.212 223.532 221.772 225.588 224.758 226.778L289.121 252.469C292.958 254.001 297.239 254.001 301.077 252.469L365.44 226.778C368.423 225.585 370.98 223.529 372.781 220.873C374.582 218.217 375.545 215.085 375.545 211.878V130.328ZM456 292.545C456 290.912 455.501 289.318 454.569 287.976C453.638 286.633 452.318 285.606 450.787 285.031L394.468 263.965C392.648 263.284 390.641 263.284 388.82 263.965L332.502 285.031C330.971 285.606 329.651 286.633 328.719 287.976C327.788 289.318 327.289 290.912 327.289 292.545V354.266C327.289 355.756 327.704 357.216 328.489 358.484C329.273 359.751 330.395 360.776 331.73 361.443L388.048 389.542C389.165 390.099 390.396 390.389 391.644 390.389C392.893 390.389 394.124 390.099 395.241 389.542L451.559 361.443C452.894 360.776 454.016 359.751 454.8 358.484C455.585 357.216 456 355.756 456 354.266V292.545ZM295.091 314.607C295.092 311.236 294.029 307.95 292.054 305.215C290.078 302.48 287.29 300.435 284.085 299.369L203.63 272.603C200.329 271.506 196.761 271.506 193.461 272.603L113.006 299.369C109.801 300.435 107.013 302.48 105.037 305.215C103.062 307.95 101.999 311.236 102 314.607V419.921C101.999 423.292 103.062 426.578 105.037 429.313C107.013 432.048 109.801 434.093 113.006 435.158L193.461 461.924C196.761 463.021 200.329 463.021 203.63 461.924L284.085 435.158C287.29 434.093 290.078 432.048 292.054 429.313C294.029 426.578 295.092 423.292 295.091 419.921V314.607Z" stroke="white" stroke-width="19" stroke-linecap="round" stroke-linejoin="round"/>
<path d="M145.333 12H78.6667C41.8477 12 12 41.8477 12 78.6667V145.333M145.333 545.333H78.6667C41.8477 545.333 12 515.487 12 478.667V412M412 12H478.667C515.487 12 545.333 41.8477 545.333 78.6667V145.333M412 545.333H478.667C515.487 545.333 545.333 515.487 545.333 478.667V412" stroke="#3B82F6" stroke-width="24" stroke-linecap="round" stroke-linejoin="round"/>
<defs>
<linearGradient id="paint0_linear_985_47" x1="278.5" y1="12" x2="278.5" y2="545" gradientUnits="userSpaceOnUse">
<stop stop-color="#97378E"/>
<stop offset="1" stop-color="#2E0151"/>
</linearGradient>
</defs>
</svg>
